<svg xmlns="http://www.w3.org/2000/svg" viewBox="0 0 24 24" fill="none" stroke="currentColor" stroke-width="1.75" stroke-linecap="round" stroke-linejoin="round">
    <path d="M12 9.25a2.75 2.75 0 1 0 0 5.5a2.75 2.75 0 0 0 0-5.5Z" />
    <path d="M19.4 15a1 1 0 0 0 .2 1.1l.05.05a1.75 1.75 0 0 1 0 2.48a1.75 1.75 0 0 1-2.48 0l-.05-.05a1 1 0 0 0-1.1-.2a1 1 0 0 0-.62.92V19.5A1.75 1.75 0 0 1 13.65 21h-3.3A1.75 1.75 0 0 1 8.6 19.25v-.08a1 1 0 0 0-.62-.92a1 1 0 0 0-1.1.2l-.05.05a1.75 1.75 0 0 1-2.48 0a1.75 1.75 0 0 1 0-2.48l.05-.05a1 1 0 0 0 .2-1.1a1 1 0 0 0-.92-.62H3.5A1.75 1.75 0 0 1 2 12.65v-1.3A1.75 1.75 0 0 1 3.75 9.6h.08a1 1 0 0 0 .92-.62a1 1 0 0 0-.2-1.1L4.5 7.83a1.75 1.75 0 0 1 0-2.48a1.75 1.75 0 0 1 2.48 0l.05.05a1 1 0 0 0 1.1.2a1 1 0 0 0 .62-.92V4.5A1.75 1.75 0 0 1 10.5 3h3a1.75 1.75 0 0 1 1.75 1.75v.08a1 1 0 0 0 .62.92a1 1 0 0 0 1.1-.2l.05-.05a1.75 1.75 0 0 1 2.48 0a1.75 1.75 0 0 1 0 2.48l-.05.05a1 1 0 0 0-.2 1.1a1 1 0 0 0 .92.62h.08A1.75 1.75 0 0 1 22 11.35v1.3A1.75 1.75 0 0 1 20.25 14h-.08a1 1 0 0 0-.77 1Z" />
</svg>
